{
  "asset": {
    "version": "2.0",
    "generator": "THREE.GLTFExporter"
  },
  "scenes": [
    {
      "nodes": [
        0,
        1,
        2,
        3,
        4,
        5,
        11,
        12,
        13,
        14
      ],
      "name": "Scene"
    }
  ],
  "scene": 0,
  "nodes": [
    {
      "matrix": [
        -0.2908647428269262,
        0.9551712048106182,
        -0.055189063886274425,
        0,
        -0.7711008773539234,
        -0.19988344806390224,
        0.6045247675783045,
        0,
        0.5663932381446841,
        0.21839122503485697,
        0.7946722584579202,
        0,
        4.076245307922363,
        1.0054539442062378,
        5.903861999511719,
        1
      ],
      "name": "Light"
    },
    {
      "matrix": [
        0.6859206666375535,
        0.7276763385868836,
        -4.011331711240018e-9,
        0,
        -0.32401347963873484,
        0.30542086411130853,
        0.8953956629320512,
        0,
        0.6515582236083066,
        -0.6141703952861253,
        0.4452714146389205,
        0,
        7.358891487121582,
        -6.925790786743164,
        4.958309173583984,
        1
      ],
      "name": "Camera",
      "camera": 0
    },
    {
      "matrix": [
        -0.2908647992083644,
        0.9551711772404516,
        -0.055188894092673024,
        0,
        0.5663933154267298,
        0.2183911050363676,
        0.7946722671179529,
        0,
        0.7711007742843989,
        0.19988352122063446,
        -0.6045248771376706,
        0,
        4.076245307922363,
        1.0054532289505005,
        5.903862476348877,
        1
      ],
      "name": "Light001"
    },
    {
      "matrix": [
        0.6859206402542223,
        0.7276764213668281,
        3.0676648776761795e-7,
        0,
        0.6515582673685805,
        -0.6141708108555779,
        0.4452713193173663,
        0,
        0.32401357755035676,
        -0.3054206105843891,
        -0.8953960292930461,
        0,
        7.358891487121582,
        -6.925792217254639,
        4.958308696746826,
        1
      ],
      "name": "Camera001"
    },
    {
      "matrix": [
        -0.2908642346245873,
        0.9551713531442498,
        -0.055188772734627634,
        0,
        0.7711006810785523,
        0.19988301795608088,
        -0.6045250959183228,
        0,
        -0.5663937271400208,
        -0.21839079213063783,
        -0.7946721154726859,
        0,
        4.076245307922363,
        1.0054525136947632,
        5.903862953186035,
        1
      ],
      "name": "Light002"
    },
    {
      "matrix": [
        0.6859205500851484,
        0.7276764554862716,
        5.51670996884468e-7,
        0,
        0.32401376035110374,
        -0.3054204142263899,
        -0.895395754492629,
        0,
        -0.6515582145691248,
        0.6141705383614742,
        -0.44527133010040565,
        0,
        7.358891487121582,
        -6.925793647766113,
        4.958308219909668,
        1
      ],
      "name": "Camera002"
    },
    {
      "matrix": [
        0.46206900477409363,
        0,
        0,
        0,
        0,
        0.23137889802455902,
        0,
        0,
        0,
        0,
        0.020845510065555573,
        0,
        0.32745039463043213,
        -0.8027781844139099,
        -0.22046810388565063,
        1
      ],
      "name": "Cube001",
      "mesh": 0
    },
    {
      "matrix": [
        0.21281504904353898,
        0,
        -0.11366498830159559,
        0,
        0,
        0.23137889802455902,
        0,
        0,
        0.0034325163011310568,
        0,
        0.006426703032156987,
        0,
        0.3820993900299072,
        -0.8049718737602234,
        -0.3481717109680176,
        1
      ],
      "name": "Cube001",
      "mesh": 1
    },
    {
      "matrix": [
        0.21281504904353898,
        0,
        -0.11366498830159559,
        0,
        0,
        0.23137889802455902,
        0,
        0,
        0.0034325163011310568,
        0,
        0.006426703032156987,
        0,
        0.5278435945510864,
        -0.8054478168487549,
        -0.44080400466918945,
        1
      ],
      "name": "Cube002",
      "mesh": 2
    },
    {
      "matrix": [
        0.6859206666375535,
        -0.7276763385868836,
        4.011331711240018e-9,
        0,
        0.32401347963873484,
        0.30542086411130853,
        0.8953956629320512,
        0,
        -0.6515582236083066,
        -0.6141703952861253,
        0.4452714146389205,
        0,
        7.358891010284424,
        6.925790786743164,
        -4.958309173583984,
        1
      ],
      "name": "PerspectiveCamera001"
    },
    {
      "matrix": [
        0.02539999969303608,
        0,
        0,
        0,
        0,
        0.02539999969303608,
        0,
        0,
        0,
        0,
        0.02539999969303608,
        0,
        0,
        0,
        0,
        1
      ],
      "name": "SketchUp"
    },
    {
      "matrix": [
        1,
        0,
        0,
        0,
        0,
        -1,
        -2.687177129701013e-7,
        0,
        0,
        2.687177129701013e-7,
        -1,
        0,
        0,
        0,
        0,
        1
      ],
      "name": "Scene",
      "children": [
        6,
        7,
        8,
        9,
        10
      ]
    },
    {
      "matrix": [
        0.26952911558393583,
        0,
        0,
        0,
        0,
        1.2689521879433121e-8,
        -0.09444499437594643,
        0,
        0,
        -0.7386008248240503,
        -1.49800015234111e-7,
        0,
        0.35620102286338806,
        0.7711118459701538,
        0.10259202122688293,
        1
      ],
      "name": "Cube",
      "mesh": 3
    },
    {
      "matrix": [
        0.27294151146406476,
        0.0033270243326459876,
        0.0008302393575914995,
        0,
        -0.00034605906263036386,
        0.02838989764200545,
        4.039602294881761e-9,
        0,
        0.0014190499686786535,
        0.000017363921989386682,
        -0.46658270303368826,
        0,
        0.35967370867729187,
        0.0005650478415191174,
        -0.26832786202430725,
        1
      ],
      "name": "Cube002",
      "mesh": 4
    },
    {
      "matrix": [
        0.27294151146406476,
        0.003327024332645394,
        0.0008302394211443974,
        0,
        -0.0003460590626304256,
        0.028389897642025555,
        4.0395620076060724e-9,
        0,
        0.001419050530508942,
        0.00001736392819691123,
        -0.4665828520442805,
        0,
        0.35967370867729187,
        1.5366616249084473,
        -0.268327534198761,
        1
      ],
      "name": "Cube003",
      "mesh": 5
    }
  ],
  "cameras": [
    {
      "type": "perspective",
      "perspective": {
        "aspectRatio": 1,
        "yfov": 0.39959652046304894,
        "zfar": 100,
        "znear": 0.10000000149011612
      },
      "name": "PerspectiveCamera"
    }
  ],
  "bufferViews": [
    {
      "buffer": 0,
      "byteOffset": 0,
      "byteLength": 432,
      "target": 34962,
      "byteStride": 12
    },
    {
      "buffer": 0,
      "byteOffset": 432,
      "byteLength": 432,
      "target": 34962,
      "byteStride": 12
    },
    {
      "buffer": 0,
      "byteOffset": 864,
      "byteLength": 288,
      "target": 34962,
      "byteStride": 8
    },
    {
      "buffer": 0,
      "byteOffset": 1152,
      "byteLength": 72,
      "target": 34963
    },
    {
      "buffer": 0,
      "byteOffset": 1224,
      "byteLength": 432,
      "target": 34962,
      "byteStride": 12
    },
    {
      "buffer": 0,
      "byteOffset": 1656,
      "byteLength": 432,
      "target": 34962,
      "byteStride": 12
    },
    {
      "buffer": 0,
      "byteOffset": 2088,
      "byteLength": 288,
      "target": 34962,
      "byteStride": 8
    },
    {
      "buffer": 0,
      "byteOffset": 2376,
      "byteLength": 72,
      "target": 34963
    },
    {
      "buffer": 0,
      "byteOffset": 2448,
      "byteLength": 432,
      "target": 34962,
      "byteStride": 12
    },
    {
      "buffer": 0,
      "byteOffset": 2880,
      "byteLength": 432,
      "target": 34962,
      "byteStride": 12
    },
    {
      "buffer": 0,
      "byteOffset": 3312,
      "byteLength": 288,
      "target": 34962,
      "byteStride": 8
    },
    {
      "buffer": 0,
      "byteOffset": 3600,
      "byteLength": 72,
      "target": 34963
    },
    {
      "buffer": 0,
      "byteOffset": 3672,
      "byteLength": 360,
      "target": 34962,
      "byteStride": 12
    },
    {
      "buffer": 0,
      "byteOffset": 4032,
      "byteLength": 360,
      "target": 34962,
      "byteStride": 12
    },
    {
      "buffer": 0,
      "byteOffset": 4392,
      "byteLength": 240,
      "target": 34962,
      "byteStride": 8
    },
    {
      "buffer": 0,
      "byteOffset": 4632,
      "byteLength": 72,
      "target": 34963
    },
    {
      "buffer": 0,
      "byteOffset": 4704,
      "byteLength": 288,
      "target": 34962,
      "byteStride": 12
    },
    {
      "buffer": 0,
      "byteOffset": 4992,
      "byteLength": 288,
      "target": 34962,
      "byteStride": 12
    },
    {
      "buffer": 0,
      "byteOffset": 5280,
      "byteLength": 192,
      "target": 34962,
      "byteStride": 8
    },
    {
      "buffer": 0,
      "byteOffset": 5472,
      "byteLength": 72,
      "target": 34963
    },
    {
      "buffer": 0,
      "byteOffset": 5544,
      "byteLength": 288,
      "target": 34962,
      "byteStride": 12
    },
    {
      "buffer": 0,
      "byteOffset": 5832,
      "byteLength": 288,
      "target": 34962,
      "byteStride": 12
    },
    {
      "buffer": 0,
      "byteOffset": 6120,
      "byteLength": 192,
      "target": 34962,
      "byteStride": 8
    },
    {
      "buffer": 0,
      "byteOffset": 6312,
      "byteLength": 72,
      "target": 34963
    }
  ],
  "buffers": [
    {
      "byteLength": 6384,
      "uri": "data:application/octet-stream;base64,"
    }
  ],
  "accessors": [
    {
      "bufferView": 0,
      "componentType": 5126,
      "count": 36,
      "max": [
        1,
        1,
        1
      ],
      "min": [
        -1,
        -1,
        -1
      ],
      "type": "VEC3"
    },
    {
      "bufferView": 1,
      "componentType": 5126,
      "count": 36,
      "max": [
        1,
        1,
        1
      ],
      "min": [
        -1,
        -1,
        -1
      ],
      "type": "VEC3"
    },
    {
      "bufferView": 2,
      "componentType": 5126,
      "count": 36,
      "max": [
        0.875,
        1
      ],
      "min": [
        0.125,
        0
      ],
      "type": "VEC2"
    },
    {
      "bufferView": 3,
      "componentType": 5123,
      "count": 36,
      "max": [
        35
      ],
      "min": [
        0
      ],
      "type": "SCALAR"
    },
    {
      "bufferView": 4,
      "componentType": 5126,
      "count": 36,
      "max": [
        1,
        1,
        1
      ],
      "min": [
        -1,
        -1,
        -1
      ],
      "type": "VEC3"
    },
    {
      "bufferView": 5,
      "componentType": 5126,
      "count": 36,
      "max": [
        1,
        1,
        1
      ],
      "min": [
        -1,
        -1,
        -1
      ],
      "type": "VEC3"
    },
    {
      "bufferView": 6,
      "componentType": 5126,
      "count": 36,
      "max": [
        0.875,
        1
      ],
      "min": [
        0.125,
        0
      ],
      "type": "VEC2"
    },
    {
      "bufferView": 7,
      "componentType": 5123,
      "count": 36,
      "max": [
        35
      ],
      "min": [
        0
      ],
      "type": "SCALAR"
    },
    {
      "bufferView": 8,
      "componentType": 5126,
      "count": 36,
      "max": [
        1,
        1,
        1
      ],
      "min": [
        -1,
        -1,
        -1
      ],
      "type": "VEC3"
    },
    {
      "bufferView": 9,
      "componentType": 5126,
      "count": 36,
      "max": [
        1,
        1,
        1
      ],
      "min": [
        -1,
        -1,
        -1
      ],
      "type": "VEC3"
    },
    {
      "bufferView": 10,
      "componentType": 5126,
      "count": 36,
      "max": [
        0.875,
        1
      ],
      "min": [
        0.125,
        0
      ],
      "type": "VEC2"
    },
    {
      "bufferView": 11,
      "componentType": 5123,
      "count": 36,
      "max": [
        35
      ],
      "min": [
        0
      ],
      "type": "SCALAR"
    },
    {
      "bufferView": 12,
      "componentType": 5126,
      "count": 30,
      "max": [
        1,
        1,
        1
      ],
      "min": [
        -1,
        -1,
        -1
      ],
      "type": "VEC3"
    },
    {
      "bufferView": 13,
      "componentType": 5126,
      "count": 30,
      "max": [
        1,
        1,
        1
      ],
      "min": [
        -1,
        -1,
        -1
      ],
      "type": "VEC3"
    },
    {
      "bufferView": 14,
      "componentType": 5126,
      "count": 30,
      "max": [
        0.7914904356002808,
        0.9925589561462402
      ],
      "min": [
        0.2085093855857849,
        0.007293701171875
      ],
      "type": "VEC2"
    },
    {
      "bufferView": 15,
      "componentType": 5123,
      "count": 36,
      "max": [
        29
      ],
      "min": [
        0
      ],
      "type": "SCALAR"
    },
    {
      "bufferView": 16,
      "componentType": 5126,
      "count": 24,
      "max": [
        1,
        1,
        1
      ],
      "min": [
        -1,
        -1,
        -1
      ],
      "type": "VEC3"
    },
    {
      "bufferView": 17,
      "componentType": 5126,
      "count": 24,
      "max": [
        1,
        1,
        1
      ],
      "min": [
        -1,
        -1,
        -1
      ],
      "type": "VEC3"
    },
    {
      "bufferView": 18,
      "componentType": 5126,
      "count": 24,
      "max": [
        0.875,
        1
      ],
      "min": [
        0.125,
        0
      ],
      "type": "VEC2"
    },
    {
      "bufferView": 19,
      "componentType": 5123,
      "count": 36,
      "max": [
        23
      ],
      "min": [
        0
      ],
      "type": "SCALAR"
    },
    {
      "bufferView": 20,
      "componentType": 5126,
      "count": 24,
      "max": [
        1,
        1,
        1
      ],
      "min": [
        -1,
        -1,
        -1
      ],
      "type": "VEC3"
    },
    {
      "bufferView": 21,
      "componentType": 5126,
      "count": 24,
      "max": [
        1,
        1,
        1
      ],
      "min": [
        -1,
        -1,
        -1
      ],
      "type": "VEC3"
    },
    {
      "bufferView": 22,
      "componentType": 5126,
      "count": 24,
      "max": [
        0.875,
        1
      ],
      "min": [
        0.125,
        0
      ],
      "type": "VEC2"
    },
    {
      "bufferView": 23,
      "componentType": 5123,
      "count": 36,
      "max": [
        23
      ],
      "min": [
        0
      ],
      "type": "SCALAR"
    }
  ],
  "materials": [
    {
      "pbrMetallicRoughness": {
        "metallicFactor": 0.5,
        "roughnessFactor": 0.5,
        "baseColorTexture": {
          "index": 0
        }
      },
      "name": "Material_2"
    },
    {
      "pbrMetallicRoughness": {
        "metallicFactor": 0.5,
        "roughnessFactor": 0.5,
        "baseColorTexture": {
          "index": 1
        }
      },
      "name": "Material_1"
    },
    {
      "pbrMetallicRoughness": {
        "metallicFactor": 0.5,
        "roughnessFactor": 0.5,
        "baseColorTexture": {
          "index": 2
        }
      },
      "name": "Material_0"
    },
    {
      "pbrMetallicRoughness": {
        "metallicFactor": 0,
        "roughnessFactor": 0.5,
        "baseColorTexture": {
          "index": 3
        }
      },
      "doubleSided": true,
      "name": "Material.002"
    },
    {
      "pbrMetallicRoughness": {
        "metallicFactor": 0,
        "roughnessFactor": 0.5,
        "baseColorTexture": {
          "index": 4
        }
      },
      "doubleSided": true,
      "name": "Material.001"
    },
    {
      "pbrMetallicRoughness": {
        "metallicFactor": 0,
        "roughnessFactor": 0.5,
        "baseColorTexture": {
          "index": 5
        }
      },
      "doubleSided": true,
      "name": "Material.003"
    }
  ],
  "textures": [
    {
      "sampler": 0,
      "source": 0
    },
    {
      "sampler": 1,
      "source": 1
    },
    {
      "sampler": 2,
      "source": 2
    },
    {
      "sampler": 3,
      "source": 3
    },
    {
      "sampler": 4,
      "source": 4
    },
    {
      "sampler": 5,
      "source": 5
    }
  ],
  "samplers": [
    {
      "magFilter": 9729,
      "minFilter": 9987
    },
    {
      "magFilter": 9729,
      "minFilter": 9987
    },
    {
      "magFilter": 9729,
      "minFilter": 9987
    },
    {
      "magFilter": 9729,
      "minFilter": 9987
    },
    {
      "magFilter": 9729,
      "minFilter": 9987
    },
    {
      "magFilter": 9729,
      "minFilter": 9987
    }
  ],
  "images": [
    {
      "mimeType": "image/png",
      "uri": "blob:https://blackthread.io/7e1f9a48-cec0-4514-a9ed-c04fc9f60023"
    },
    {
      "mimeType": "image/png",
      "uri": "blob:https://blackthread.io/7ed2b89d-587c-4d34-99da-d7f40fef4704"
    },
    {
      "mimeType": "image/png",
      "uri": "blob:https://blackthread.io/8c23adfa-584d-4d3f-aa21-f1890b6ee26c"
    },
    {
      "mimeType": "image/png",
      "uri": "blob:https://blackthread.io/e38df91a-5869-4b1b-96d3-d98041700b80"
    },
    {
      "mimeType": "image/png",
      "uri": "blob:https://blackthread.io/51f5fa0a-2bc1-4ac8-9143-0c7f11d5821b"
    },
    {
      "mimeType": "image/png",
      "uri": "blob:https://blackthread.io/fbc59b79-7d0d-4ca4-b62c-213c5cd8a342"
    }
  ],
  "meshes": [
    {
      "primitives": [
        {
          "mode": 4,
          "attributes": {
            "POSITION": 0,
            "NORMAL": 1,
            "TEXCOORD_0": 2
          },
          "indices": 3,
          "material": 0
        }
      ]
    },
    {
      "primitives": [
        {
          "mode": 4,
          "attributes": {
            "POSITION": 4,
            "NORMAL": 5,
            "TEXCOORD_0": 6
          },
          "indices": 7,
          "material": 1
        }
      ]
    },
    {
      "primitives": [
        {
          "mode": 4,
          "attributes": {
            "POSITION": 8,
            "NORMAL": 9,
            "TEXCOORD_0": 10
          },
          "indices": 11,
          "material": 2
        }
      ]
    },
    {
      "primitives": [
        {
          "mode": 4,
          "attributes": {
            "POSITION": 12,
            "NORMAL": 13,
            "TEXCOORD_0": 14
          },
          "indices": 15,
          "material": 3
        }
      ]
    },
    {
      "primitives": [
        {
          "mode": 4,
          "attributes": {
            "POSITION": 16,
            "NORMAL": 17,
            "TEXCOORD_0": 18
          },
          "indices": 19,
          "material": 4
        }
      ]
    },
    {
      "primitives": [
        {
          "mode": 4,
          "attributes": {
            "POSITION": 20,
            "NORMAL": 21,
            "TEXCOORD_0": 22
          },
          "indices": 23,
          "material": 5
        }
      ]
    }
  ]
}