{
  "asset": {
    "version": "2.0",
    "generator": "THREE.GLTFExporter"
  },
  "scenes": [
    {
      "nodes": [
        0,
        1,
        5
      ],
      "name": "Scene"
    }
  ],
  "scene": 0,
  "nodes": [
    {
      "matrix": [
        -0.2908648399819871,
        -0.05518894956130538,
        -0.955171234951699,
        0,
        0.7711008921323312,
        -0.6045248771376706,
        -0.19988350217047568,
        0,
        -0.5663932577154824,
        -0.794672372826394,
        0.2183910642627449,
        0,
        4.076245307922363,
        5.903862476348877,
        -1.0054532289505005,
        1
      ],
      "name": "Light"
    },
    {
      "matrix": [
        0.6859206402542223,
        3.0676648776761795e-7,
        -0.7276764213668281,
        0,
        0.32401357755035676,
        -0.8953960292930461,
        0.3054206105843891,
        0,
        -0.6515582673685805,
        -0.4452713193173663,
        -0.6141708108555779,
        0,
        7.358891487121582,
        4.958308696746826,
        6.925792217254639,
        1
      ],
      "name": "Camera"
    },
    {
      "matrix": [
        0.46206900477409363,
        0,
        0,
        0,
        0,
        0.23137889802455902,
        0,
        0,
        0,
        0,
        0.020845510065555573,
        0,
        0.32745039463043213,
        -0.8027781844139099,
        -0.22046810388565063,
        1
      ],
      "name": "Cube",
      "mesh": 0
    },
    {
      "matrix": [
        0.6859206666375535,
        -0.7276763385868836,
        4.011331711240018e-9,
        0,
        0.32401347963873484,
        0.30542086411130853,
        0.8953956629320512,
        0,
        -0.6515582236083066,
        -0.6141703952861253,
        0.4452714146389205,
        0,
        7.358891010284424,
        6.925790786743164,
        -4.958309173583984,
        1
      ],
      "name": "PerspectiveCamera001"
    },
    {
      "matrix": [
        0.02539999969303608,
        0,
        0,
        0,
        0,
        0.02539999969303608,
        0,
        0,
        0,
        0,
        0.02539999969303608,
        0,
        0,
        0,
        0,
        1
      ],
      "name": "SketchUp"
    },
    {
      "matrix": [
        1,
        0,
        0,
        0,
        0,
        -1.3435885648505064e-7,
        0.9999999657714511,
        0,
        0,
        -0.9999999657714511,
        -1.3435885648505064e-7,
        0,
        0,
        0,
        0,
        1
      ],
      "name": "Scene",
      "children": [
        2,
        3,
        4
      ]
    }
  ],
  "bufferViews": [
    {
      "buffer": 0,
      "byteOffset": 0,
      "byteLength": 432,
      "target": 34962,
      "byteStride": 12
    },
    {
      "buffer": 0,
      "byteOffset": 432,
      "byteLength": 432,
      "target": 34962,
      "byteStride": 12
    },
    {
      "buffer": 0,
      "byteOffset": 864,
      "byteLength": 288,
      "target": 34962,
      "byteStride": 8
    },
    {
      "buffer": 0,
      "byteOffset": 1152,
      "byteLength": 72,
      "target": 34963
    }
  ],
  "buffers": [
    {
      "byteLength": 1224,
      "uri": "data:application/octet-stream;base64,"
    }
  ],
  "accessors": [
    {
      "bufferView": 0,
      "componentType": 5126,
      "count": 36,
      "max": [
        1,
        1,
        1
      ],
      "min": [
        -1,
        -1,
        -1
      ],
      "type": "VEC3"
    },
    {
      "bufferView": 1,
      "componentType": 5126,
      "count": 36,
      "max": [
        1,
        1,
        1
      ],
      "min": [
        -1,
        -1,
        -1
      ],
      "type": "VEC3"
    },
    {
      "bufferView": 2,
      "componentType": 5126,
      "count": 36,
      "max": [
        0.8157138824462891,
        0.9753018617630005
      ],
      "min": [
        0.0657137855887413,
        -0.024698257446289062
      ],
      "type": "VEC2"
    },
    {
      "bufferView": 3,
      "componentType": 5123,
      "count": 36,
      "max": [
        35
      ],
      "min": [
        0
      ],
      "type": "SCALAR"
    }
  ],
  "materials": [
    {
      "pbrMetallicRoughness": {
        "metallicFactor": 0,
        "roughnessFactor": 1,
        "baseColorTexture": {
          "index": 0
        }
      },
      "name": "Material_2"
    }
  ],
  "textures": [
    {
      "sampler": 0,
      "source": 0
    }
  ],
  "samplers": [
    {
      "magFilter": 9729,
      "minFilter": 9987
    }
  ],
  "images": [
    {
      "mimeType": "image/png",
      "uri": "data:image/png;base64,"
    }
  ],
  "meshes": [
    {
      "primitives": [
        {
          "mode": 4,
          "attributes": {
            "POSITION": 0,
            "NORMAL": 1,
            "TEXCOORD_0": 2
          },
          "indices": 3,
          "material": 0
        }
      ]
    }
  ]
}